<svg version="1.1" xmlns="http://www.w3.org/2000/svg" xmlns:xlink="http://www.w3.org/1999/xlink" x="0px" y="0px"
	 viewBox="-483 485 32 32" enable-background="new -483 485 32 32" xml:space="preserve">
<g>
	<path fill="#CCCCCC" d="M-465.5,487c0,0-6.3,0-8.4,0c-3.8,0-7.3,2.8-7.3,6.1c0,3.4,2.6,6.1,6.4,6.1c0.3,0,0.5,0,0.8,0
		c-0.2,0.5-0.4,1-0.4,1.6c0,0.9,0.5,1.7,1.1,2.3c-0.5,0-0.9,0-1.5,0c-4.6,0-8.2,3-8.2,6c0,3,3.9,4.9,8.6,4.9c5.3,0,8.2-3,8.2-6
		c0-2.4-0.7-3.9-2.9-5.4c-0.8-0.5-2.2-1.8-2.2-2.6c0-0.9,0.3-1.3,1.6-2.4c1.4-1.1,2.4-2.6,2.4-4.4c0-2.1-0.9-4.2-2.7-4.8h2.7
		L-465.5,487z M-468.5,507.5c0.1,0.3,0.1,0.6,0.1,0.9c0,2.4-1.6,4.4-6.1,4.4c-3.2,0-5.5-2-5.5-4.5c0-2.4,2.9-4.4,6.1-4.4
		c0.8,0,1.4,0.1,2.1,0.3C-470.1,505.4-468.8,506.1-468.5,507.5z M-473.6,498.4c-2.2-0.1-4.2-2.4-4.6-5.2c-0.4-2.8,1.1-5,3.2-4.9
		c2.2,0.1,4.2,2.3,4.6,5.2C-470,496.2-471.4,498.4-473.6,498.4z M-457,493v-6h-2v6h-6v2h6v6h2v-6h6v-2H-457z"/>
</g>
</svg>
