<?xml version="1.0" encoding="utf-8"?>
<!-- Generator: Adobe Illustrator 18.1.1, SVG Export Plug-In . SVG Version: 6.00 Build 0)  -->
<svg version="1.1" id="Layer_1" xmlns="http://www.w3.org/2000/svg" xmlns:xlink="http://www.w3.org/1999/xlink" x="0px" y="0px"
	 viewBox="0 0 259.3358 66" enable-background="new 0 0 259.3358 66" xml:space="preserve">
<g>
	<g>
		<defs>
			<rect id="SVGID_1_" x="10.6679" y="3" width="236.8799" height="61"/>
		</defs>
		<clipPath id="SVGID_2_">
			<use xlink:href="#SVGID_1_"  overflow="visible"/>
		</clipPath>
		<path clip-path="url(#SVGID_2_)" fill="#003087" d="M54.0038,7.5269C51.2231,4.3589,46.1948,3,39.766,3H21.102
			c-1.3169,0-2.4341,0.957-2.6411,2.2539l-7.773,49.293c-0.1528,0.9726,0.5972,1.8515,1.5821,1.8515h11.5229l2.895-18.3554
			l-0.0898,0.5742c0.207-1.2969,1.3159-2.2539,2.6318-2.2539h5.4771c10.7539,0,19.1797-4.3711,21.6411-17.0112
			c0.0698-0.3721,0.1357-0.7349,0.1909-1.0899C57.27,13.5903,56.5307,10.4062,54.0038,7.5269"/>
	</g>
	<path fill="#009CDE" d="M195.0781,30.9839c-0.7032,4.6255-4.2344,4.6255-7.6524,4.6255h-1.9463l1.3643-8.6323
		c0.082-0.524,0.5351-0.9068,1.0625-0.9068h0.8906c2.3281,0,4.5234,0,5.6563,1.3247
		C195.1288,28.188,195.3359,29.3633,195.0781,30.9839 M193.5937,18.918H180.707c-0.8828,0-1.6328,0.6411-1.7696,1.5122
		l-5.2109,33.0385c-0.1016,0.6524,0.4023,1.2422,1.0586,1.2422h6.6133c0.6172,0,1.1406-0.4492,1.2383-1.0547l1.4804-9.371
		c0.1367-0.8711,0.8867-1.5118,1.7656-1.5118h4.0782c8.4883,0,13.3867-4.1054,14.6679-12.2505
		c0.5743-3.5576,0.0235-6.3549-1.6445-8.312C201.1523,20.0552,197.9023,18.918,193.5937,18.918"/>
	<path fill="#003087" d="M103.1718,30.9839c-0.707,4.6255-4.2378,4.6255-7.6558,4.6255h-1.9418l1.3637-8.6323
		c0.0821-0.524,0.5308-0.9068,1.0581-0.9068h0.895c2.3238,0,4.5191,0,5.6519,1.3247
		C103.2231,28.188,103.4257,29.3633,103.1718,30.9839 M101.684,18.918H88.7968c-0.8789,0-1.6289,0.6411-1.77,1.5122l-5.207,33.0385
		c-0.105,0.6524,0.3989,1.2422,1.059,1.2422h6.1519c0.8833,0,1.6333-0.6406,1.77-1.5078l1.4063-8.9179
		c0.1367-0.8711,0.8867-1.5118,1.77-1.5118h4.0737c8.4883,0,13.3901-4.1054,14.668-12.2505c0.5781-3.5576,0.0234-6.3549-1.645-8.312
		C109.2421,20.0552,105.996,18.918,101.684,18.918"/>
	<path fill="#003087" d="M131.6015,42.8477c-0.5977,3.5234-3.3945,5.8945-6.9648,5.8945c-1.7886,0-3.2227-0.5781-4.1446-1.668
		c-0.914-1.082-1.2583-2.6211-0.9692-4.332c0.5552-3.4961,3.4028-5.9375,6.9179-5.9375c1.75,0,3.1724,0.5781,4.1138,1.6797
		C131.4999,39.5937,131.871,41.1406,131.6015,42.8477 M140.1992,30.8359h-6.1719c-0.5274,0-0.9766,0.3872-1.0586,0.9102
		l-0.2735,1.7226l-0.4296-0.6245c-1.336-1.938-4.3169-2.5903-7.2886-2.5903c-6.8169,0-12.6411,5.168-13.7739,12.4141
		c-0.5904,3.6132,0.2456,7.0703,2.2968,9.4804c1.8828,2.2149,4.5699,3.1368,7.7701,3.1368c5.496,0,8.5424-3.5313,8.5424-3.5313
		l-0.2734,1.7148c-0.1055,0.6524,0.3984,1.2422,1.0625,1.2422h5.5547c0.8828,0,1.6289-0.6406,1.7695-1.5117l3.336-21.1211
		C141.3632,31.4263,140.8593,30.8359,140.1992,30.8359"/>
	<path fill="#009CDE" d="M223.5077,42.8477c-0.5976,3.5234-3.3945,5.8945-6.9648,5.8945c-1.7891,0-3.2227-0.5781-4.1445-1.668
		c-0.9141-1.082-1.2539-2.6211-0.9649-4.332c0.5547-3.4961,3.3985-5.9375,6.9141-5.9375c1.7539,0,3.1758,0.5781,4.1133,1.6797
		C223.4062,39.5937,223.7773,41.1406,223.5077,42.8477 M232.1093,30.8359h-6.1719c-0.5273,0-0.9804,0.3872-1.0625,0.9102
		l-0.2695,1.7226l-0.4336-0.6245c-1.3359-1.938-4.3125-2.5903-7.2891-2.5903c-6.8164,0-12.6367,5.168-13.7734,12.4141
		c-0.5898,3.6132,0.25,7.0703,2.3008,9.4804c1.8828,2.2149,4.5664,3.1368,7.7695,3.1368c5.4961,0,8.543-3.5313,8.543-3.5313
		l-0.2774,1.7148c-0.1015,0.6524,0.4024,1.2422,1.0625,1.2422h5.5547c0.8828,0,1.6328-0.6406,1.7696-1.5117l3.3359-21.1211
		C233.2734,31.4263,232.7656,30.8359,232.1093,30.8359"/>
	<g>
		<defs>
			<rect id="SVGID_3_" x="10.6679" y="3" width="236.8799" height="61"/>
		</defs>
		<clipPath id="SVGID_4_">
			<use xlink:href="#SVGID_3_"  overflow="visible"/>
		</clipPath>
		<path clip-path="url(#SVGID_4_)" fill="#003087" d="M173.0624,30.8359h-6.2031c-0.5898,0-1.1445,0.2974-1.4805,0.7891
			l-8.5546,12.5977l-3.625-12.1094c-0.2266-0.7583-0.9258-1.2774-1.7149-1.2774h-6.0976c-0.7344,0-1.254,0.7261-1.0157,1.4224
			l6.8282,20.0464l-6.4219,9.0625c-0.5039,0.7109,0.0039,1.6953,0.875,1.6953h6.1953c0.5859,0,1.1367-0.2891,1.4726-0.7695
			l20.625-29.7701C174.4374,31.812,173.9296,30.8359,173.0624,30.8359"/>
		<path clip-path="url(#SVGID_4_)" fill="#009CDE" d="M239.3788,19.8242l-5.2851,33.6485
			c-0.1055,0.6484,0.3984,1.2382,1.0586,1.2382h5.3203c0.8789,0,1.6289-0.6406,1.7656-1.5117l5.2149-33.039
			c0.1054-0.6519-0.3985-1.2422-1.0586-1.2422h-5.9532C239.9101,18.918,239.4609,19.3013,239.3788,19.8242"/>
		<path clip-path="url(#SVGID_4_)" fill="#003087" d="M54.0038,7.5269C51.2231,4.3589,46.1948,3,39.766,3H21.102
			c-1.3169,0-2.4341,0.957-2.6411,2.2539l-7.773,49.293c-0.1528,0.9726,0.5972,1.8515,1.5821,1.8515h11.5229l2.895-18.3554
			l-0.0898,0.5742c0.207-1.2969,1.3159-2.2539,2.6318-2.2539h5.4771c10.7539,0,19.1797-4.3711,21.6411-17.0112
			c0.0698-0.3721,0.1357-0.7349,0.1909-1.0899C57.27,13.5903,56.5307,10.4062,54.0038,7.5269"/>
		<path clip-path="url(#SVGID_4_)" fill="#003087" d="M29.8007,18.3198c0.1211-0.7768,0.625-1.4179,1.2974-1.7417
			c0.3076-0.1479,0.6518-0.226,1.0078-0.226h14.6362c1.731,0,3.3477,0.1088,4.8237,0.3471c0.4263,0.0708,0.836,0.1489,1.2349,0.2388
			c0.3985,0.0849,0.7852,0.187,1.1602,0.2959c0.187,0.0552,0.3711,0.1103,0.5551,0.1723c0.7261,0.2417,1.4019,0.524,2.023,0.856
			c0.731-4.6763-0.0083-7.852-2.5313-10.731C51.2231,4.3589,46.1987,3,39.766,3H21.0981c-1.313,0-2.4302,0.957-2.6372,2.2539
			l-7.773,49.293c-0.1528,0.9726,0.5972,1.8515,1.5821,1.8515h11.5268l2.8911-18.3554L29.8007,18.3198z"/>
	</g>
	<path fill="#009CDE" d="M56.539,18.2622c-0.0591,0.355-0.1172,0.7178-0.1909,1.0899
		C53.8867,31.9922,45.4648,36.3633,34.707,36.3633h-5.48c-1.313,0-2.4219,0.957-2.625,2.2539l-2.8052,17.7812l-0.7969,5.043
		c-0.1372,0.8516,0.523,1.6211,1.3828,1.6211h9.7154c1.1479,0,2.1289-0.8359,2.3076-1.9727l0.0942-0.4921l1.8321-11.6055
		l0.1167-0.6406c0.1801-1.1368,1.1572-1.9727,2.309-1.9727h1.4532c9.4101,0,16.7768-3.8242,18.9301-14.8789
		c0.898-4.6211,0.4327-8.4771-1.9418-11.188C58.477,19.4922,57.582,18.812,56.539,18.2622"/>
	<path fill="#012169" d="M53.9609,17.2339c-0.375-0.1089-0.7617-0.211-1.1602-0.2959c-0.3989-0.0899-0.813-0.168-1.2349-0.2349
		c-1.476-0.2422-3.0927-0.355-4.8281-0.355H32.1088c-0.3628,0-0.7031,0.0821-1.0107,0.23c-0.6763,0.3238-1.1763,0.961-1.2974,1.7461
		L26.6908,38.043l-0.0888,0.5742c0.2031-1.2969,1.312-2.2539,2.6279-2.2539h5.4771c10.7578,0,19.1797-4.3711,21.6411-17.0112
		c0.0737-0.3721,0.1318-0.7349,0.1909-1.0899c-0.625-0.332-1.2969-0.6143-2.023-0.856
		C54.332,17.3481,54.1479,17.2891,53.9609,17.2339"/>
</g>
</svg>
