<svg version="1.1" xmlns="http://www.w3.org/2000/svg" xmlns:xlink="http://www.w3.org/1999/xlink" x="0px" y="0px"
	 viewBox="-482 485 33 33" enable-background="new -482 485 33 33" xml:space="preserve">
<g>
	<path fill="#CCCCCC" d="M-465.5,485c-9.1,0-16.5,7.4-16.5,16.5s7.4,16.5,16.5,16.5s16.5-7.4,16.5-16.5S-456.4,485-465.5,485z
		 M-463.9,507c-1.5-0.1-2.1-0.9-3.3-1.6c-0.6,3.4-1.4,6.6-3.8,8.3c-0.7-5.1,1.1-9,1.9-13.1c-1.4-2.4,0.2-7.2,3.1-6
		c3.7,1.4-3.2,8.8,1.4,9.8c4.8,1,6.7-8.3,3.8-11.3c-4.3-4.4-12.5-0.1-11.5,6.1c0.2,1.5,1.8,2,0.6,4.1c-2.7-0.6-3.6-2.8-3.5-5.7
		c0.2-4.7,4.2-8,8.3-8.5c5.2-0.6,10,1.9,10.7,6.8C-455.3,501.5-458.4,507.5-463.9,507z"/>
</g>
</svg>
