<svg version="1.1" xmlns="http://www.w3.org/2000/svg" xmlns:xlink="http://www.w3.org/1999/xlink" x="0px" y="0px"
	 viewBox="-243 245 512 512" enable-background="new -243 245 512 512" xml:space="preserve">
<g>
	<g>
		<polygon fill="#CCCCCC" points="-141.3,245 -109.9,245 -89.7,318.3 -87.7,318.3 -68.5,245 -36.9,245 -73.1,352.3 -73.1,428.4 
			-104.2,428.4 -104.2,355.7 		"/>
		<path fill="#CCCCCC" d="M-34.6,324.1c0-10.5,3.7-18.9,11.2-25c7.4-6.2,17.5-9.3,30-9.3c11.4,0,20.8,3.3,28.1,9.8
			c7.3,6.5,10.9,15,10.9,25.3v69.9c0,11.6-3.6,20.6-10.7,27.2c-7.2,6.6-17,9.9-29.6,9.9c-12.1,0-21.8-3.4-29-10.2
			c-7.2-6.8-10.9-16-10.9-27.5L-34.6,324.1L-34.6,324.1z M-6.2,396.7c0,3.7,1,6.6,3,8.6c2,2,4.8,3,8.4,3c3.7,0,6.7-1,8.9-3.1
			c2.2-2.1,3.3-4.9,3.3-8.6V323c0-3-1.1-5.3-3.4-7.2c-2.3-1.8-5.2-2.7-8.8-2.7c-3.4,0-6.1,0.9-8.2,2.7c-2.1,1.8-3.2,4.2-3.2,7.2
			L-6.2,396.7L-6.2,396.7z"/>
		<path fill="#CCCCCC" d="M146.9,293.1v135.3h-27.7v-14.9c-5,5.5-10.4,9.7-15.9,12.6c-5.5,2.9-10.9,4.3-16,4.3c-6.4,0-11.2-2-14.5-6
			c-3.2-4-4.8-10.1-4.8-18.1V293.1h27.6v103.7c0,3.2,0.6,5.5,1.8,7c1.1,1.4,3,2.2,5.6,2.2c2,0,4.6-1,7.7-2.9
			c3.1-1.9,5.9-4.3,8.5-7.3V293.1H146.9z"/>
	</g>
	<g>
		<path fill="#CCCCCC" d="M62.4,595.2c-1.8,0-3.5,0.4-5.2,1.2c-1.7,0.8-3.4,2.1-5.1,3.7v76.5c2,2,3.9,3.5,5.8,4.3
			c1.9,0.9,3.8,1.3,5.9,1.3c3,0,5.2-0.9,6.6-2.6c1.4-1.7,2.1-4.5,2.1-8.5v-63.4c0-4.1-0.9-7.3-2.6-9.4
			C68.2,596.3,65.7,595.2,62.4,595.2z"/>
		<path fill="#CCCCCC" d="M147,595.6c-3.9,0-6.7,1.1-8.4,3.4c-1.7,2.1-2.5,5.9-2.5,11v12.4h21.7V610c0-5.1-0.9-8.9-2.6-11
			C153.5,596.7,150.7,595.6,147,595.6z"/>
		<path fill="#CCCCCC" d="M203,500c-20.2-19.8-190.1-20.1-190.1-20.1c0,0-169.9,0.2-190.1,20.1c-20.2,19.8-20.3,117.8-20.3,118.4
			v0.2c0,0.6,0.1,98.4,20.3,118.2C-157,756.6,12.9,757,12.9,757s169.9-0.4,190.1-20.2c20.3-19.9,20.5-118.4,20.5-118.4
			C223.5,617.8,223.3,519.9,203,500z M-72.1,557.7h-28.6V700h-27.7V557.7H-157v-24.2h84.9L-72.1,557.7L-72.1,557.7z M8.8,700h-24.5
			v-13.5c-4.6,5-9.3,8.8-14.2,11.4c-4.9,2.6-9.6,3.9-14.3,3.9c-5.7,0-9.9-1.8-12.8-5.5c-2.8-3.7-4.3-9.1-4.3-16.5V577.2h24.5v94.2
			c0,2.9,0.5,5,1.5,6.3c1.1,1.3,2.8,2,5,2c1.8,0,4.1-0.9,6.9-2.6c2.8-1.7,5.3-3.9,7.6-6.6v-93.3H8.8L8.8,700L8.8,700z M97.9,674.7
			c0,8.7-1.9,15.4-5.8,20c-3.8,4.7-9.4,6.9-16.7,6.9c-4.8,0-9.1-0.9-12.8-2.7c-3.7-1.8-7.3-4.5-10.5-8.3v9.4H27.3V533.5h24.8v53.6
			c3.3-3.7,6.8-6.6,10.5-8.5c3.7-2,7.5-2.9,11.3-2.9c7.8,0,13.7,2.6,17.8,7.8c4.1,5.2,6.2,12.9,6.2,23L97.9,674.7L97.9,674.7z
			 M183,641.6h-47v23.1c0,6.5,0.8,10.9,2.4,13.5c1.7,2.5,4.4,3.7,8.3,3.7c4.1,0,6.9-1.1,8.5-3.2c1.6-2.1,2.5-6.8,2.5-14v-5.6H183
			v6.3c0,12.6-3.1,22.1-9.3,28.5c-6.1,6.3-15.3,9.5-27.5,9.5c-11,0-19.7-3.3-26-10.1c-6.3-6.7-9.5-16-9.5-27.9v-55.2
			c0-10.6,3.5-19.3,10.4-26c6.9-6.7,15.9-10.1,26.9-10.1c11.2,0,19.9,3.1,25.9,9.3c6,6.2,9,15.1,9,26.8L183,641.6L183,641.6
			L183,641.6z"/>
	</g>
</g>
</svg>
